<mxfile host="app.diagrams.net" modified="2023-10-23T10:35:21.246Z" agent="Mozilla/5.0 (Windows NT 10.0; Win64; x64) AppleWebKit/537.36 (KHTML, like Gecko) Chrome/118.0.0.0 Safari/537.36" version="22.0.6" etag="_dAJbzLLL4RlcDfLoqGl" type="github">
  <diagram name="Страница — 1" id="D6KQhEhulvl-ap_t0ZK3">
    <mxGraphModel>
      <root>
        <mxCell id="0" />
        <mxCell id="1" parent="0" />
      </root>
    </mxGraphModel>
  </diagram>
</mxfile>
